<?xml version="1.0" encoding="utf-8"?>
<!-- Generator: Adobe Illustrator 26.3.1, SVG Export Plug-In . SVG Version: 6.00 Build 0)  -->
<svg version="1.1" id="Capa_1" xmlns="http://www.w3.org/2000/svg" xmlns:xlink="http://www.w3.org/1999/xlink" x="0px" y="0px"
	 viewBox="0 0 230 230" style="enable-background:new 0 0 230 230;" xml:space="preserve">
<style type="text/css">
	.st0{fill:url(#SVGID_1_);}
	.st1{fill:#FFFFFF;}
	.st2{fill:#1A8B96;}
</style>
<radialGradient id="SVGID_1_" cx="115" cy="114.8583" r="115" gradientTransform="matrix(1 0 0 -1 0 229.8583)" gradientUnits="userSpaceOnUse">
	<stop  offset="0.7772" style="stop-color:#FFFFFF"/>
	<stop  offset="1" style="stop-color:#C9C9C9"/>
</radialGradient>
<circle class="st0" cx="115" cy="115" r="115"/>
<g>
	<g>
		<path class="st1" d="M157.3,176.6c-3.3,0-6.3-2-7.5-5.1l-7.2-17.8H87.4l-7.2,17.8c-1.2,3.1-4.2,5.1-7.5,5.1H56.6
			c-2.7,0-5.2-1.3-6.7-3.6c-1.5-2.2-1.8-5.1-0.8-7.6l52.4-129c1.2-3.1,4.2-5.1,7.5-5.1h11.8c3.3,0,6.3,2,7.5,5.1l52.5,129
			c1,2.5,0.7,5.3-0.8,7.6c-1.5,2.2-4,3.6-6.7,3.6H157.3z"/>
	</g>
</g>
<path class="st2" d="M108.8,39.5l-52.4,129h16.1l9.3-22.9h66.1l9.3,22.9h16.1l-52.5-129H108.8z M87.8,130.7l27-66.2l27,66.2H87.8z"
	/>
</svg>
